HIERARCHY
ROOT hip
{
  OFFSET 34.8348 63.9039 -38.5768
  CHANNELS 6 Xposition Yposition Zposition Zrotation Xrotation Yrotation
  JOINT abdomen
  {
    OFFSET 0 20.6881 -0.73152
    CHANNELS 3 Zrotation Xrotation Yrotation
    JOINT chest
    {
      OFFSET 0 11.7043 -0.48768
      CHANNELS 3 Zrotation Xrotation Yrotation
      JOINT neck
      {
        OFFSET 0 22.1894 -2.19456
        CHANNELS 3 Zrotation Xrotation Yrotation
        JOINT head
        {
          OFFSET -0.24384 7.07133 1.2192
          CHANNELS 3 Zrotation Xrotation Yrotation
          JOINT leftEye
          {
            OFFSET 4.14528 8.04674 8.04672
            CHANNELS 3 Zrotation Xrotation Yrotation
            End Site
            {
              OFFSET 1 0 0
            }
          }
          JOINT rightEye
          {
            OFFSET -3.6576 8.04674 8.04672
            CHANNELS 3 Zrotation Xrotation Yrotation
            End Site
            {
              OFFSET 1 0 0
            }
          }
        }
      }
      JOINT rCollar
      {
        OFFSET -2.68224 19.2634 -4.8768
        CHANNELS 3 Zrotation Xrotation Yrotation
        JOINT rShldr
        {
          OFFSET -8.77824 -1.95073 1.46304
          CHANNELS 3 Zrotation Xrotation Yrotation
          JOINT rForeArm
          {
            OFFSET -28.1742 -1.7115 0.48768
            CHANNELS 3 Zrotation Xrotation Yrotation
            JOINT rHand
            {
              OFFSET -22.5879 0.773209 7.07136
              CHANNELS 3 Zrotation Xrotation Yrotation
              JOINT rThumb1
              {
                OFFSET -1.2192 -0.487915 3.41376
                CHANNELS 3 Zrotation Xrotation Yrotation
                JOINT rThumb2
                {
                  OFFSET -3.37035 -0.52449 3.41376
                  CHANNELS 3 Zrotation Xrotation Yrotation
                  End Site
                  {
                    OFFSET -1.78271 -1.18214 1.43049
                  }
                }
              }
              JOINT rIndex1
              {
                OFFSET -7.75947 0.938293 5.60832
                CHANNELS 3 Zrotation Xrotation Yrotation
                JOINT rIndex2
                {
                  OFFSET -2.54057 -0.884171 1.56538
                  CHANNELS 3 Zrotation Xrotation Yrotation
                  End Site
                  {
                    OFFSET -1.62519 -0.234802 1.16502
                  }
                }
              }
              JOINT rMid1
              {
                OFFSET -8.24714 1.18213 3.41376
                CHANNELS 3 Zrotation Xrotation Yrotation
                JOINT rMid2
                {
                  OFFSET -3.10165 -0.590103 1.0647
                  CHANNELS 3 Zrotation Xrotation Yrotation
                  End Site
                  {
                    OFFSET -2.48547 -0.328903 0.83742
                  }
                }
              }
              JOINT rRing1
              {
                OFFSET -8.82822 0.546677 1.51678
                CHANNELS 3 Zrotation Xrotation Yrotation
                JOINT rRing2
                {
                  OFFSET -2.60934 -0.819778 -0.0198488
                  CHANNELS 3 Zrotation Xrotation Yrotation
                  End Site
                  {
                    OFFSET -2.33842 -0.294052 0.168128
                  }
                }
              }
              JOINT rPinky1
              {
                OFFSET -8.27202 -0.0477905 -0.4584
                CHANNELS 3 Zrotation Xrotation Yrotation
                JOINT rPinky2
                {
                  OFFSET -1.82734 -0.647385 -0.700984
                  CHANNELS 3 Zrotation Xrotation Yrotation
                  End Site
                  {
                    OFFSET -1.69225 -0.51767 -0.607171
                  }
                }
              }
            }
          }
        }
      }
      JOINT lCollar
      {
        OFFSET 2.68224 19.2634 -4.8768
        CHANNELS 3 Zrotation Xrotation Yrotation
        JOINT lShldr
        {
          OFFSET 8.77824 -1.95073 1.46304
          CHANNELS 3 Zrotation Xrotation Yrotation
          JOINT lForeArm
          {
            OFFSET 28.1742 -1.7115 0.48768
            CHANNELS 3 Zrotation Xrotation Yrotation
            JOINT lHand
            {
              OFFSET 22.5879 0.773209 7.07136
              CHANNELS 3 Zrotation Xrotation Yrotation
              JOINT lThumb1
              {
                OFFSET 1.2192 -0.487915 3.41376
                CHANNELS 3 Zrotation Xrotation Yrotation
                JOINT lThumb2
                {
                  OFFSET 3.37035 -0.52449 3.41376
                  CHANNELS 3 Zrotation Xrotation Yrotation
                  End Site
                  {
                    OFFSET 1.78271 -1.18214 1.43049
                  }
                }
              }
              JOINT lIndex1
              {
                OFFSET 7.75947 0.938293 5.60832
                CHANNELS 3 Zrotation Xrotation Yrotation
                JOINT lIndex2
                {
                  OFFSET 2.54057 -0.884171 1.56538
                  CHANNELS 3 Zrotation Xrotation Yrotation
                  End Site
                  {
                    OFFSET 1.62519 -0.234802 1.16502
                  }
                }
              }
              JOINT lMid1
              {
                OFFSET 8.24714 1.18213 3.41376
                CHANNELS 3 Zrotation Xrotation Yrotation
                JOINT lMid2
                {
                  OFFSET 3.10165 -0.590103 1.0647
                  CHANNELS 3 Zrotation Xrotation Yrotation
                  End Site
                  {
                    OFFSET 2.48547 -0.328903 0.83742
                  }
                }
              }
              JOINT lRing1
              {
                OFFSET 8.82822 0.546677 1.51678
                CHANNELS 3 Zrotation Xrotation Yrotation
                JOINT lRing2
                {
                  OFFSET 2.60934 -0.819778 -0.0198488
                  CHANNELS 3 Zrotation Xrotation Yrotation
                  End Site
                  {
                    OFFSET 2.33842 -0.294052 0.168128
                  }
                }
              }
              JOINT lPinky1
              {
                OFFSET 8.27202 -0.0477905 -0.4584
                CHANNELS 3 Zrotation Xrotation Yrotation
                JOINT lPinky2
                {
                  OFFSET 1.82734 -0.647385 -0.700984
                  CHANNELS 3 Zrotation Xrotation Yrotation
                  End Site
                  {
                    OFFSET 1.69225 -0.51767 -0.607171
                  }
                }
              }
            }
          }
        }
      }
    }
  }
  JOINT rButtock
  {
    OFFSET -8.77824 4.35084 1.2192
    CHANNELS 3 Zrotation Xrotation Yrotation
    JOINT rThigh
    {
      OFFSET 0 -1.70687 -2.19456
      CHANNELS 3 Zrotation Xrotation Yrotation
      JOINT rShin
      {
        OFFSET 0 -36.8199 0.73152
        CHANNELS 3 Zrotation Xrotation Yrotation
        JOINT rFoot
        {
          OFFSET 0.73152 -45.1104 -5.12064
          CHANNELS 3 Zrotation Xrotation Yrotation
          End Site
          {
            OFFSET -1.1221 -3.69964 12.103
          }
        }
      }
    }
  }
  JOINT lButtock
  {
    OFFSET 8.77824 4.35084 1.2192
    CHANNELS 3 Zrotation Xrotation Yrotation
    JOINT lThigh
    {
      OFFSET 0 -1.70687 -2.19456
      CHANNELS 3 Zrotation Xrotation Yrotation
      JOINT lShin
      {
        OFFSET 0 -36.8199 0.73152
        CHANNELS 3 Zrotation Xrotation Yrotation
        JOINT lFoot
        {
          OFFSET -0.73152 -45.1104 -5.12064
          CHANNELS 3 Zrotation Xrotation Yrotation
          End Site
          {
            OFFSET 1.1221 -3.69964 12.103
          }
        }
      }
    }
  }
}
MOTION
Frames:	6
Frame Time:	0.00833333
35.3124 63.5629 -36.8528 2.70629 -0.176194 91.2829 0.386475 20.1648 -1.08307 -2.15964 -8.2361 -0.607334 2.53032 1.02085 0.576992 -1.02249 -10.2769 0.30885 -0 0 0 -0 0 0 6.39523e-017 2.10685e-013 5.96354e-016 37.0878 15.707 56.7771 -26.1413 -23.8029 57.3604 -0.347128 16.5262 2.38992 -1.18051e-009 -1.92392e-010 -2.31574e-009 -2.07172e-009 -3.13485e-010 -3.97865e-009 -1.18051e-009 -1.92389e-010 -2.31577e-009 7.73091 5.47488 0.417314 -1.18051e-009 -1.92392e-010 -2.31575e-009 2.90554 0.965183 0.102902 -1.1805e-009 -1.92391e-010 -2.31575e-009 10.2786 0.731801 0.0259123 -1.18051e-009 -1.92393e-010 -2.31575e-009 2.22167 -0.733487 -0.20892 -6.39659e-017 2.10687e-013 1.98785e-016 -41.3081 19.6983 -50.7378 27.4113 -27.8236 -63.7838 0.0690833 7.47818 -1.05706 2.14187e-009 3.58388e-010 9.16998e-010 3.70696e-009 6.26204e-010 1.56837e-009 2.14187e-009 3.5839e-010 9.17008e-010 -7.73091 5.47488 -0.417314 2.14187e-009 3.5839e-010 9.16992e-010 -2.90554 0.965183 -0.102902 2.14187e-009 3.58391e-010 9.1699e-010 -10.2786 0.731801 -0.0259123 2.14188e-009 3.58393e-010 9.16976e-010 -2.22167 -0.733487 0.20892 -2.03217e-016 0 -3.88251e-019 -20.5334 -37.3326 -24.1337 -2.9124 75.3521 3.90307 -7.04812 -26.8694 -13.1607 2.03217e-016 0 3.88251e-019 22.1164 -37.0078 24.6449 2.65104 74.5794 -3.75731 8.16816 -25.2668 17.2049 
35.2914 63.5537 -36.8555 2.70987 -0.171704 91.2833 0.410194 20.1606 -1.08557 -2.15698 -8.23786 -0.608191 2.53565 1.05733 0.587473 -1.04768 -10.3115 0.327384 -0 0 0 -0 0 0 3.05496e-015 4.18623e-013 1.83884e-014 37.0813 15.7325 56.7804 -26.1421 -23.8051 57.3639 -0.345749 16.4945 2.38508 -1.03519e-009 -1.82118e-010 -2.098e-009 -1.8177e-009 -2.9747e-010 -3.60514e-009 -1.03518e-009 -1.82116e-010 -2.09803e-009 7.73091 5.47488 0.417314 -1.03519e-009 -1.82118e-010 -2.09801e-009 2.90554 0.965183 0.102902 -1.03517e-009 -1.82118e-010 -2.09801e-009 10.2786 0.731801 0.0259123 -1.03519e-009 -1.82118e-010 -2.09801e-009 2.22167 -0.733487 -0.20892 2.96778e-015 4.18624e-013 1.79753e-014 -41.2843 19.7204 -50.7554 27.4147 -27.8373 -63.8056 0.0692284 7.486 -1.05818 1.92119e-009 3.22483e-010 8.45737e-010 3.32509e-009 5.63505e-010 1.447e-009 1.92119e-009 3.22484e-010 8.45747e-010 -7.73091 5.47488 -0.417314 1.92119e-009 3.22483e-010 8.45732e-010 -2.90554 0.965183 -0.102902 1.92119e-009 3.22484e-010 8.4573e-010 -10.2786 0.731801 -0.0259123 1.92119e-009 3.22487e-010 8.45716e-010 -2.22167 -0.733487 0.20892 -2.03217e-016 0 -3.88251e-019 -20.5068 -37.3306 -24.0992 -2.91744 75.3717 3.90949 -7.06997 -26.8858 -13.1949 2.03217e-016 0 3.88251e-019 22.1398 -36.9957 24.664 2.65697 74.6045 -3.76322 8.16445 -25.2846 17.1876 
35.2699 63.5452 -36.8575 2.71321 -0.168555 91.2844 0.432064 20.156 -1.08734 -2.15505 -8.24006 -0.609199 2.5399 1.09093 0.59799 -1.06115 -10.351 0.347353 -0 0 0 -0 0 0 1.37073e-014 7.84995e-013 5.76103e-014 37.0766 15.7569 56.7816 -26.1441 -23.8103 57.3722 -0.343983 16.4539 2.37886 -9.20558e-010 -1.3648e-010 -1.73863e-009 -1.61493e-009 -2.21118e-010 -2.98688e-009 -9.20549e-010 -1.3648e-010 -1.73865e-009 7.73091 5.47488 0.417314 -9.20556e-010 -1.36479e-010 -1.73863e-009 2.90554 0.965183 0.102902 -9.20545e-010 -1.36479e-010 -1.73864e-009 10.2786 0.731801 0.0259123 -9.20559e-010 -1.36479e-010 -1.73863e-009 2.22167 -0.733487 -0.20892 1.3701e-014 7.84992e-013 5.72127e-014 -41.2559 19.745 -50.7738 27.4183 -27.8517 -63.8285 0.0696213 7.5071 -1.06119 1.58628e-009 2.9373e-010 6.62519e-010 2.74541e-009 5.12884e-010 1.1326e-009 1.58628e-009 2.93731e-010 6.62528e-010 -7.73091 5.47488 -0.417314 1.58628e-009 2.93729e-010 6.62515e-010 -2.90554 0.965183 -0.102902 1.58627e-009 2.9373e-010 6.62514e-010 -10.2786 0.731801 -0.0259123 1.58629e-009 2.93732e-010 6.62501e-010 -2.22167 -0.733487 0.20892 -2.03217e-016 0 -3.88251e-019 -20.4804 -37.3282 -24.0636 -2.92225 75.3896 3.91571 -7.09252 -26.9019 -13.2302 2.03217e-016 0 3.88251e-019 22.1583 -36.9834 24.6791 2.66255 74.6283 -3.76885 8.16255 -25.3011 17.1745 
35.2478 63.5378 -36.8592 2.71741 -0.166259 91.2833 0.452805 20.1517 -1.09162 -2.15244 -8.24325 -0.610806 2.54374 1.12786 0.608117 -1.06758 -10.404 0.367467 -0 0 0 -0 0 0 2.49147e-014 1.13008e-012 9.69378e-014 37.0733 15.7795 56.782 -26.1469 -23.8176 57.3837 -0.342291 16.4147 2.37287 -8.11683e-010 -4.27685e-011 -1.25353e-009 -1.42057e-009 -6.22759e-011 -2.15145e-009 -8.11675e-010 -4.27714e-011 -1.25354e-009 7.73091 5.47488 0.417314 -8.11682e-010 -4.27674e-011 -1.25352e-009 2.90554 0.965183 0.102902 -8.11674e-010 -4.27679e-011 -1.25353e-009 10.2786 0.731801 0.0259123 -8.11687e-010 -4.27662e-011 -1.25351e-009 2.22167 -0.733487 -0.20892 2.4985e-014 1.13008e-012 9.65682e-014 -41.2256 19.7694 -50.7908 27.4223 -27.8676 -63.8538 0.070078 7.5315 -1.06468 1.19865e-009 2.78719e-010 3.88722e-010 2.0743e-009 4.85826e-010 6.61884e-010 1.19865e-009 2.78719e-010 3.88732e-010 -7.73091 5.47488 -0.417314 1.19865e-009 2.78716e-010 3.88721e-010 -2.90554 0.965183 -0.102902 1.19864e-009 2.78717e-010 3.8872e-010 -10.2786 0.731801 -0.0259123 1.19866e-009 2.78719e-010 3.8871e-010 -2.22167 -0.733487 0.20892 -2.03217e-016 0 -3.88251e-019 -20.4561 -37.3223 -24.0308 -2.92669 75.4062 3.92151 -7.11434 -26.9182 -13.2641 2.03217e-016 0 3.88251e-019 22.1714 -36.9707 24.6873 2.6678 74.6506 -3.77414 8.1618 -25.3165 17.1644 
35.2252 63.5316 -36.86 2.7236 -0.164341 91.2774 0.473138 20.1487 -1.10166 -2.1477 -8.24795 -0.613457 2.54785 1.17433 0.61743 -1.07164 -10.4791 0.38644 -0 0 0 -0 0 0 2.95709e-014 1.27416e-012 1.15047e-013 37.0708 15.7997 56.783 -26.15 -23.8257 57.3967 -0.341123 16.3875 2.36872 -6.8363e-010 1.11723e-010 -6.58569e-010 -1.19175e-009 2.01208e-010 -1.12645e-009 -6.83622e-010 1.11719e-010 -6.58585e-010 7.73091 5.47488 0.417314 -6.8363e-010 1.11725e-010 -6.58559e-010 2.90554 0.965183 0.102902 -6.83623e-010 1.11724e-010 -6.58566e-010 10.2786 0.731801 0.0259123 -6.83636e-010 1.11726e-010 -6.58553e-010 2.22167 -0.733487 -0.20892 2.96689e-014 1.27416e-012 1.14699e-013 -41.1963 19.7909 -50.8045 27.4269 -27.8859 -63.8828 0.0704107 7.54917 -1.06721 8.19804e-010 2.84036e-010 4.57268e-011 1.41813e-009 4.93816e-010 7.15537e-011 8.198e-010 2.84035e-010 4.57396e-011 -7.73091 5.47488 -0.417314 8.19804e-010 2.84033e-010 4.57268e-011 -2.90554 0.965183 -0.102902 8.19797e-010 2.84033e-010 4.5726e-011 -10.2786 0.731801 -0.0259123 8.19814e-010 2.84035e-010 4.57173e-011 -2.22167 -0.733487 0.20892 -2.03217e-016 0 -3.88251e-019 -20.4358 -37.31 -24.0046 -2.93062 75.422 3.92668 -7.134 -26.9353 -13.2938 2.03217e-016 0 3.88251e-019 22.1786 -36.9575 24.686 2.67274 74.6714 -3.77904 8.16153 -25.331 17.1559 
35.2017 63.5289 -36.8602 2.73176 -0.163336 91.264 0.492829 20.1468 -1.12042 -2.14008 -8.25365 -0.617729 2.55374 1.22742 0.627002 -1.07408 -10.5732 0.405711 -0 0 0 -0 0 0 2.36233e-014 1.12059e-012 1.00671e-013 37.0682 15.8169 56.7854 -26.1535 -23.8348 57.4113 -0.340691 16.3775 2.36719 -5.29971e-010 4.13009e-010 2.17057e-010 -9.15372e-010 7.17364e-010 3.83092e-010 -5.29964e-010 4.13005e-010 2.17043e-010 7.73091 5.47488 0.417314 -5.29971e-010 4.1301e-010 2.17066e-010 2.90554 0.965183 0.102902 -5.29966e-010 4.13009e-010 2.1706e-010 10.2786 0.731801 0.0259123 -5.29978e-010 4.13011e-010 2.17072e-010 2.22167 -0.733487 -0.20892 2.36704e-014 1.12058e-012 1.00332e-013 -41.1673 19.8087 -50.8141 27.4322 -27.9069 -63.9162 0.0705789 7.5581 -1.06849 4.31352e-010 3.41921e-010 -4.85524e-010 7.44695e-010 5.92418e-010 -8.44094e-010 4.31339e-010 3.41917e-010 -4.85504e-010 -7.73091 5.47488 -0.417314 4.31353e-010 3.41918e-010 -4.85523e-010 -2.90554 0.965183 -0.102902 4.31347e-010 3.41917e-010 -4.85524e-010 -10.2786 0.731801 -0.0259123 4.31363e-010 3.41919e-010 -4.85532e-010 -2.22167 -0.733487 0.20892 -2.03217e-016 0 -3.88251e-019 -20.4199 -37.2881 -23.9863 -2.93322 75.4346 3.93035 -7.15139 -26.9542 -13.3188 2.03217e-016 0 3.88251e-019 22.1756 -36.9432 24.6709 2.67687 74.6884 -3.78302 8.16276 -25.3445 17.151 
